<svg xmlns="http://www.w3.org/2000/svg"  viewBox="0 0 48 48" width="48px" height="48px" baseProfile="basic"><linearGradient id="YK230bdKDiYkuFg8qTmOba" x1="20.885" x2="25.675" y1="2.201" y2="38.061" gradientUnits="userSpaceOnUse"><stop offset="0" stop-color="#dfe0e0"/><stop offset=".01" stop-color="#e0e1e1"/><stop offset=".137" stop-color="#e8eaea"/><stop offset=".32" stop-color="#ebeded"/><stop offset=".327" stop-color="#eaeded"/><stop offset="1" stop-color="#b7bfc1"/></linearGradient><path fill="url(#YK230bdKDiYkuFg8qTmOba)" d="M42,21.528C42,31.745,33,39,24,39c-8,0-19-7.194-19-16.444C5,12.338,14.059,2,24,2 S42,11.311,42,21.528z"/><linearGradient id="YK230bdKDiYkuFg8qTmObb" x1="20.983" x2="25.249" y1="9.011" y2="31.439" gradientUnits="userSpaceOnUse"><stop offset="0" stop-color="#626363"/><stop offset=".15" stop-color="#5b5c5c"/><stop offset=".638" stop-color="#4b4b4c"/><stop offset="1" stop-color="#454546"/></linearGradient><path fill="url(#YK230bdKDiYkuFg8qTmObb)" d="M25,17c0,0,1,1,2,1 c3.072,0,2.454-9,6.48-9C35.934,9,37,12.232,37,15.232C37,19,35,22,31,22C25.994,22,25,17,25,17z M16.314,23C21.473,23,23,17,23,17 s-1,1-2,1c-3.771,0-2.928-6-6.48-6C12.066,12,11,14.735,11,17.274C11,20.462,13.217,23,16.314,23z M25.347,22.035 c-0.417,0.162-0.465,0.941-0.108,1.739c0.357,0.798,0.985,1.314,1.402,1.152s0.465-0.941,0.108-1.739 C26.392,22.388,25.764,21.873,25.347,22.035z M21.239,23.187c-0.357,0.798-0.309,1.577,0.108,1.739s1.045-0.354,1.402-1.152 s0.309-1.577-0.108-1.739S21.597,22.388,21.239,23.187z M36.735,27.379c2.825-2.953,2.058-4.983,2.058-4.983 c-0.411,1.482-1.275,2.71-2.376,3.713l-0.433-1.73c-0.067-0.269-0.338-0.43-0.606-0.364c-0.268,0.067-0.431,0.339-0.364,0.606 l0.547,2.188c-0.814,0.6-1.71,1.103-2.636,1.502c-0.163,0.077-0.336,0.15-0.51,0.222l-0.426-2.131 c-0.054-0.271-0.313-0.448-0.588-0.393c-0.271,0.054-0.446,0.317-0.392,0.588l0.458,2.289c-1.04,0.346-2.213,0.614-3.467,0.798 V27.5c0-0.276-0.224-0.5-0.5-0.5S27,27.224,27,27.5v2.311c-1.912,0.204-3.967,0.216-6,0.012V27.5c0-0.276-0.224-0.5-0.5-0.5 S20,27.224,20,27.5v2.204c-1.193-0.163-2.365-0.403-3.486-0.726l0.476-2.381c0.054-0.271-0.122-0.534-0.392-0.588 c-0.276-0.057-0.534,0.121-0.588,0.393l-0.455,2.274c-1.073-0.367-2.082-0.815-2.996-1.35l0.426-1.705 c0.067-0.268-0.096-0.539-0.364-0.606c-0.27-0.067-0.539,0.096-0.606,0.364l-0.344,1.376C10.254,25.759,9.134,24.518,8.48,23 c0,0-0.374,2.302,2.872,5.032l-0.337,1.347c-0.067,0.268,0.096,0.539,0.364,0.606C11.419,29.995,11.46,30,11.5,30 c0.224,0,0.428-0.151,0.484-0.379l0.235-0.941c0.465,0.318,0.937,0.613,1.407,0.86c0.524,0.267,1.063,0.506,1.609,0.731 l-0.226,1.131c-0.054,0.271,0.122,0.534,0.392,0.588C15.435,31.997,15.468,32,15.5,32c0.233,0,0.442-0.164,0.49-0.402l0.191-0.957 c1.237,0.447,2.517,0.785,3.818,1.015V33.5c0,0.276,0.224,0.5,0.5,0.5s0.5-0.224,0.5-0.5v-1.686c1.992,0.262,4.017,0.257,6-0.015 v1.7c0,0.276,0.224,0.5,0.5,0.5s0.5-0.224,0.5-0.5v-1.861c1.3-0.241,2.573-0.603,3.8-1.09l0.21,1.049 C32.057,31.836,32.266,32,32.5,32c0.032,0,0.065-0.003,0.099-0.01c0.271-0.054,0.446-0.317,0.392-0.588l-0.251-1.253 c0.297-0.136,0.594-0.273,0.884-0.425c0.79-0.412,1.568-0.938,2.28-1.551l0.112,0.448C36.072,28.849,36.275,29,36.5,29 c0.04,0,0.081-0.005,0.122-0.015c0.268-0.067,0.431-0.339,0.364-0.606L36.735,27.379z"/><linearGradient id="YK230bdKDiYkuFg8qTmObc" x1="11.562" x2="12.978" y1="33.719" y2="43.957" gradientUnits="userSpaceOnUse"><stop offset="0" stop-color="#626363"/><stop offset=".15" stop-color="#5b5c5c"/><stop offset=".638" stop-color="#4b4b4c"/><stop offset="1" stop-color="#454546"/></linearGradient><polygon fill="url(#YK230bdKDiYkuFg8qTmObc)" points="21,37 4,33 8,37 3,39 8,41 4,45 22,42"/><linearGradient id="YK230bdKDiYkuFg8qTmObd" x1="34.746" x2="35.908" y1="33.948" y2="44.041" gradientUnits="userSpaceOnUse"><stop offset="0" stop-color="#626363"/><stop offset=".15" stop-color="#5b5c5c"/><stop offset=".638" stop-color="#4b4b4c"/><stop offset="1" stop-color="#454546"/></linearGradient><polygon fill="url(#YK230bdKDiYkuFg8qTmObd)" points="27,37 44,33 40,37 45,39 40,41 44,45 26,42"/><linearGradient id="YK230bdKDiYkuFg8qTmObe" x1="23.178" x2="24.376" y1="32.053" y2="42.181" gradientUnits="userSpaceOnUse"><stop offset="0" stop-color="#dfe0e0"/><stop offset=".005" stop-color="#e0e1e1"/><stop offset=".071" stop-color="#e8eaea"/><stop offset=".165" stop-color="#ebeded"/><stop offset=".173" stop-color="#eaeded"/><stop offset="1" stop-color="#b7bfc1"/></linearGradient><path fill="url(#YK230bdKDiYkuFg8qTmObe)" d="M21,41l-11,1l8-2L7.492,39H18 l-7.888-2.727L20,38L21,41z M27,41l11,1l-8-2l10.508-1H30l7.888-2.727L28,38L27,41z"/><linearGradient id="YK230bdKDiYkuFg8qTmObf" x1="23.824" x2="25.131" y1="33.627" y2="43.719" gradientUnits="userSpaceOnUse"><stop offset="0" stop-color="#626363"/><stop offset=".15" stop-color="#5b5c5c"/><stop offset=".638" stop-color="#4b4b4c"/><stop offset="1" stop-color="#454546"/></linearGradient><path fill="url(#YK230bdKDiYkuFg8qTmObf)" d="M30,34l-3.018,2h-5.964L18,34 c-0.407,9.094,6,10,6,10S30.523,43.024,30,34z"/><linearGradient id="YK230bdKDiYkuFg8qTmObg" x1="23.861" x2="24.369" y1="37.023" y2="40.835" gradientUnits="userSpaceOnUse"><stop offset="0" stop-color="#dfe0e0"/><stop offset=".004" stop-color="#e0e1e1"/><stop offset=".048" stop-color="#e8eaea"/><stop offset=".113" stop-color="#ebeded"/><stop offset=".121" stop-color="#eaeded"/><stop offset="1" stop-color="#b7bfc1"/></linearGradient><path fill="url(#YK230bdKDiYkuFg8qTmObg)" d="M20,38c3,0,3,3,3,3C20,41,20,38,20,38z M28,38c-3,0-3,3-3,3C28,41,28,38,28,38z"/></svg>